<svg xmlns="http://www.w3.org/2000/svg" version="1.1" xmlns:xlink="http://www.w3.org/1999/xlink" width="512" height="512" x="0" y="0" viewBox="0 0 200 200" style="enable-background:new 0 0 512 512" xml:space="preserve" class=""><g><linearGradient id="a" x1="100" x2="100" y1="200" gradientUnits="userSpaceOnUse"><stop offset="0" stop-color="#c28900"></stop><stop offset="1" stop-color="#ffce59"></stop></linearGradient><g data-name="Layer 2"><g data-name="Binance (BNB)"><circle cx="100" cy="100" r="100" fill="url(#a)" opacity="1" data-original="url(#a)" class=""></circle><path fill="#ffffff" fill-rule="evenodd" d="M78.31 91.06 100 69.36l21.75 21.75 12.63-12.63L100 44.1 65.67 78.42zM44.1 100l12.63-12.63L69.36 100l-12.63 12.63zm34.21 9L100 130.64l21.75-21.75 12.63 12.63L100 155.91l-34.33-34.33zm52.33-9 12.63-12.63L155.91 100l-12.64 12.63zm-17.78 0L100 112.8 87.2 100l2.23-2.24 1.12-1.11L100 87.2z" opacity="1" data-original="#ffffff"></path></g></g></g></svg>